<svg xmlns="http://www.w3.org/2000/svg" xmlns:xlink="http://www.w3.org/1999/xlink" viewBox="0 0 102 40" fill="#fff" fill-rule="evenodd" stroke="#000" stroke-linecap="round" stroke-linejoin="round"><use xlink:href="#A" x=".5" y=".5"/><symbol id="A" overflow="visible"><g stroke="none" fill-rule="nonzero"><path d="M18.42 29.158h1.9v9.506h-1.9zM18.355 0h1.9v9.506h-1.9zm-2.968 28.368l1.804.6-3.002 9.02-1.804-.6zm-2.657-1.68l1.538 1.117-5.585 7.692-1.538-1.117zm-1.924-2.396l1.106 1.546-7.73 5.53-1.106-1.546zm-1.123-2.896l.6 1.808-9.038 2.945-.6-1.808zm-.178-3.064v1.9H0v-1.9zm.73-2.943l-.586 1.808-9.042-2.93.586-1.808zm1.648-2.615l-1.124 1.533-7.666-5.62 1.124-1.533zM12.4 1.232L14.207.64l2.958 9.034-1.807.592zM7.182 4.198l1.532-1.125 5.626 7.662-1.532 1.125z" fill="#fe9000"/><path d="M22.88 20.15l-.098-4.542h-.033l-1.246 4.28-1.344 4.308H18.2l-1.18-4.28-.997-4.313H16l-.178 4.575-.215 4.214h-2.313l.702-11.046h3.33l1.082 3.7.937 3.952h.066l1.05-3.966 1.166-3.67h3.278l.6 11.046h-2.43zm11.106 2.313c-.017.647.027 1.295.13 1.934H31.87l-.145-.805h-.052a2.89 2.89 0 0 1-2.294.983 2.46 2.46 0 0 1-2.589-2.458c0-2.08 1.873-3.067 4.683-3.067v-.098c0-.426-.23-1.03-1.456-1.03-.774.01-1.534.214-2.2.6l-.468-1.592a6.58 6.58 0 0 1 3.114-.721c2.674 0 3.507 1.573 3.507 3.46zm-2.4-1.873c-1.3 0-2.34.314-2.34 1.264-.014.26.087.514.276.694s.447.268.707.242c.588-.003 1.1-.38 1.297-.937a1.8 1.8 0 0 0 .047-.426zm10.402 3.573a5.7 5.7 0 0 1-2.229.375c-2.6 0-4.242-1.587-4.242-4.097 0-2.34 1.606-4.247 4.6-4.247a5.78 5.78 0 0 1 1.901.314l-.393 1.873a3.41 3.41 0 0 0-1.405-.248 2.24 2.24 0 0 0-2.212 2.264 2.24 2.24 0 0 0 2.264 2.212c.48.01.96-.08 1.405-.262zm3.082-1.522a5.05 5.05 0 0 0 2.557.721c1.46 0 2.313-.768 2.313-1.873 0-1.03-.6-1.625-2.08-2.196-1.803-.637-2.917-1.573-2.917-3.133 0-1.718 1.405-2.997 3.573-2.997a5.02 5.02 0 0 1 2.44.538l-.393 1.16a4.39 4.39 0 0 0-2.098-.524c-1.508 0-2.08.9-2.08 1.653 0 1.03.674 1.54 2.196 2.13 1.873.72 2.8 1.625 2.8 3.245 0 1.704-1.26 3.18-3.868 3.18a5.71 5.71 0 0 1-2.81-.702zm9.917-8.088v1.873h2.065v1.107h-2.065v4.275c0 .983.276 1.54 1.082 1.54a3.21 3.21 0 0 0 .833-.098l.066 1.083a3.53 3.53 0 0 1-1.278.197 2 2 0 0 1-1.559-.609c-.407-.426-.557-1.128-.557-2.065v-4.323h-1.227v-1.096h1.232v-1.464zm8.077 9.825l-.112-.98h-.047c-.57.76-1.474 1.2-2.426 1.18a2.26 2.26 0 0 1-2.426-2.276c0-1.915 1.704-2.964 4.77-2.95v-.17c0-.656-.178-1.836-1.803-1.836a3.95 3.95 0 0 0-2.065.59l-.328-.937a4.92 4.92 0 0 1 2.603-.702c2.426 0 3.016 1.653 3.016 3.245v2.917a11.17 11.17 0 0 0 .131 1.901zm-.215-4.05c-1.573-.033-3.357.248-3.357 1.8a1.28 1.28 0 0 0 1.363 1.377 1.97 1.97 0 0 0 1.915-1.33c.05-.15.078-.3.08-.468zm10.573-7.595v9.585l.066 2.05h-1.292L72.13 23h-.033c-.53.995-1.58 1.6-2.706 1.555-1.915 0-3.395-1.62-3.395-4.032 0-2.636 1.625-4.26 3.554-4.26a2.65 2.65 0 0 1 2.393 1.213h.033v-4.734zm-1.442 6.9c.003-.205-.02-.4-.066-.6a2.12 2.12 0 0 0-2.079-1.672c-1.494 0-2.374 1.3-2.374 3.067 0 1.606.787 2.936 2.34 2.936a2.17 2.17 0 0 0 2.112-1.704 2.51 2.51 0 0 0 .066-.623zm5.44-5.436c-.034.468-.423.83-.892.83s-.858-.362-.892-.83a.88.88 0 0 1 .904-.904.86.86 0 0 1 .64.26.85.85 0 0 1 .242.645zm-1.606 10.16v-7.932h1.442v7.932zM86.3 22.214l.066 2.163h-1.278l-.08-1.297h-.033a2.98 2.98 0 0 1-2.622 1.475c-1.246 0-2.735-.688-2.735-3.474v-4.636h1.442v4.392c0 1.508.468 2.524 1.77 2.524a2.07 2.07 0 0 0 1.9-1.31c.088-.237.132-.487.13-.74v-4.865h1.442zm2.388-3.624l-.066-2.145h1.264l.066 1.278H90a2.73 2.73 0 0 1 2.49-1.456 2.34 2.34 0 0 1 2.243 1.587h.033a3.28 3.28 0 0 1 .885-1.03c.502-.385 1.123-.583 1.756-.557 1.05 0 2.603.688 2.603 3.442v4.683h-1.405v-4.505c0-1.522-.557-2.444-1.718-2.444-.787.035-1.47.56-1.704 1.3-.076.233-.115.476-.117.72v4.903H93.66v-4.734c0-1.26-.557-2.182-1.653-2.182a2.15 2.15 0 0 0-1.901 2.149v4.786H88.7z" fill="#000"/></g></symbol></svg>